<svg xmlns="http://www.w3.org/2000/svg" xmlns:xlink="http://www.w3.org/1999/xlink" width="500" zoomAndPan="magnify" viewBox="0 0 375 374.999991" height="500" preserveAspectRatio="xMidYMid meet" version="1.0"><defs><g/></defs><rect x="-37.5" width="450" fill="#ffffff" y="-37.499999" height="449.999989" fill-opacity="1"/><rect x="-37.5" width="450" fill="#faf6f5" y="-37.499999" height="449.999989" fill-opacity="1"/><g fill="#e43a3d" fill-opacity="1"><g transform="translate(101.194294, 180.311995)"><g><path d="M 26.1875 -12.484375 C 26.21875 -10.492188 26.144531 -8.515625 25.96875 -6.546875 C 25.789062 -4.585938 25.609375 -2.628906 25.421875 -0.671875 C 25.347656 0.00390625 25.117188 0.539062 24.734375 0.9375 C 24.347656 1.34375 23.882812 1.613281 23.34375 1.75 C 22.8125 1.894531 22.285156 1.894531 21.765625 1.75 C 21.253906 1.613281 20.84375 1.34375 20.53125 0.9375 C 20.21875 0.539062 20.09375 0.00390625 20.15625 -0.671875 C 20.320312 -2.210938 20.5 -3.800781 20.6875 -5.4375 C 20.875 -7.070312 20.992188 -8.707031 21.046875 -10.34375 C 21.109375 -11.976562 21 -13.566406 20.71875 -15.109375 C 20.675781 -15.390625 20.601562 -15.664062 20.5 -15.9375 C 20.394531 -16.207031 20.328125 -16.484375 20.296875 -16.765625 C 20.046875 -16.484375 19.757812 -16.1875 19.4375 -15.875 C 19.125 -15.570312 18.882812 -15.296875 18.71875 -15.046875 C 18.1875 -14.242188 17.773438 -13.40625 17.484375 -12.53125 C 17.191406 -11.65625 16.960938 -10.75 16.796875 -9.8125 C 16.703125 -9.226562 16.457031 -8.785156 16.0625 -8.484375 C 15.664062 -8.179688 15.207031 -8.003906 14.6875 -7.953125 C 14.175781 -7.910156 13.675781 -7.984375 13.1875 -8.171875 C 12.695312 -8.359375 12.296875 -8.648438 11.984375 -9.046875 C 11.679688 -9.441406 11.566406 -9.929688 11.640625 -10.515625 C 11.679688 -11.148438 11.71875 -11.78125 11.75 -12.40625 C 11.789062 -13.039062 11.800781 -13.6875 11.78125 -14.34375 C 11.78125 -14.550781 11.785156 -14.847656 11.796875 -15.234375 C 11.804688 -15.617188 11.789062 -15.992188 11.75 -16.359375 C 11.71875 -16.722656 11.625 -17 11.46875 -17.1875 C 11.414062 -17.25 11.40625 -17.304688 11.4375 -17.359375 C 11.363281 -17.335938 11.335938 -17.335938 11.359375 -17.359375 C 11.148438 -17.285156 10.945312 -17.070312 10.75 -16.71875 C 10.550781 -16.375 10.40625 -16.128906 10.3125 -15.984375 C 10.050781 -15.566406 9.820312 -15.128906 9.625 -14.671875 C 9.425781 -14.210938 9.242188 -13.75 9.078125 -13.28125 C 8.304688 -11.207031 7.800781 -9.054688 7.5625 -6.828125 C 7.332031 -4.609375 7.148438 -2.398438 7.015625 -0.203125 C 6.960938 0.472656 6.75 1.015625 6.375 1.421875 C 6.007812 1.828125 5.5625 2.09375 5.03125 2.21875 C 4.507812 2.351562 3.988281 2.351562 3.46875 2.21875 C 2.957031 2.09375 2.53125 1.828125 2.1875 1.421875 C 1.851562 1.015625 1.707031 0.472656 1.75 -0.203125 C 1.863281 -2.023438 2.003906 -3.859375 2.171875 -5.703125 C 2.335938 -7.554688 2.617188 -9.382812 3.015625 -11.1875 C 3.242188 -12.28125 3.550781 -13.421875 3.9375 -14.609375 C 4.320312 -15.804688 4.800781 -16.957031 5.375 -18.0625 C 5.945312 -19.175781 6.644531 -20.132812 7.46875 -20.9375 C 8.238281 -21.707031 9.144531 -22.21875 10.1875 -22.46875 C 11.226562 -22.726562 12.242188 -22.707031 13.234375 -22.40625 C 14.222656 -22.101562 15.046875 -21.457031 15.703125 -20.46875 C 15.734375 -20.425781 15.769531 -20.367188 15.8125 -20.296875 C 15.863281 -20.234375 15.898438 -20.164062 15.921875 -20.09375 C 16.597656 -20.90625 17.335938 -21.550781 18.140625 -22.03125 C 18.953125 -22.507812 19.789062 -22.71875 20.65625 -22.65625 C 21.519531 -22.601562 22.40625 -22.179688 23.3125 -21.390625 C 24.132812 -20.691406 24.742188 -19.835938 25.140625 -18.828125 C 25.535156 -17.828125 25.800781 -16.769531 25.9375 -15.65625 C 26.082031 -14.539062 26.164062 -13.484375 26.1875 -12.484375 Z M 26.1875 -12.484375 "/></g></g></g><g fill="#e43a3d" fill-opacity="1"><g transform="translate(130.470417, 180.311995)"><g/></g></g><g fill="#2f7ee2" fill-opacity="1"><g transform="translate(130.470417, 180.311995)"><g><path d="M 18.15625 -15.328125 C 18.226562 -13.003906 18.285156 -10.675781 18.328125 -8.34375 C 18.378906 -6.007812 18.441406 -3.671875 18.515625 -1.328125 C 18.535156 -0.648438 18.367188 -0.109375 18.015625 0.296875 C 17.671875 0.703125 17.238281 0.96875 16.71875 1.09375 C 16.207031 1.226562 15.6875 1.226562 15.15625 1.09375 C 14.632812 0.96875 14.191406 0.703125 13.828125 0.296875 C 13.460938 -0.109375 13.269531 -0.648438 13.25 -1.328125 C 13.226562 -2.035156 13.210938 -2.734375 13.203125 -3.421875 C 13.191406 -4.109375 13.175781 -4.800781 13.15625 -5.5 L 7.890625 -5.71875 C 7.703125 -4.832031 7.523438 -3.945312 7.359375 -3.0625 C 7.203125 -2.1875 7.039062 -1.304688 6.875 -0.421875 C 6.757812 0.253906 6.492188 0.742188 6.078125 1.046875 C 5.671875 1.347656 5.195312 1.492188 4.65625 1.484375 C 4.125 1.472656 3.617188 1.332031 3.140625 1.0625 C 2.660156 0.800781 2.285156 0.425781 2.015625 -0.0625 C 1.742188 -0.5625 1.664062 -1.148438 1.78125 -1.828125 C 2.207031 -4.117188 2.679688 -6.382812 3.203125 -8.625 C 3.734375 -10.863281 4.476562 -13.050781 5.4375 -15.1875 C 5.90625 -16.238281 6.5 -17.367188 7.21875 -18.578125 C 7.945312 -19.796875 8.769531 -20.910156 9.6875 -21.921875 C 10.613281 -22.941406 11.640625 -23.6875 12.765625 -24.15625 C 13.816406 -24.601562 14.664062 -24.6875 15.3125 -24.40625 C 15.96875 -24.125 16.484375 -23.617188 16.859375 -22.890625 C 17.234375 -22.171875 17.507812 -21.335938 17.6875 -20.390625 C 17.863281 -19.441406 17.976562 -18.507812 18.03125 -17.59375 C 18.09375 -16.6875 18.132812 -15.929688 18.15625 -15.328125 Z M 9.328125 -10.90625 C 9.953125 -10.882812 10.566406 -10.859375 11.171875 -10.828125 C 11.785156 -10.804688 12.398438 -10.785156 13.015625 -10.765625 C 12.984375 -11.535156 12.960938 -12.300781 12.953125 -13.0625 C 12.941406 -13.820312 12.925781 -14.578125 12.90625 -15.328125 C 12.882812 -15.628906 12.875 -15.945312 12.875 -16.28125 C 12.875 -16.625 12.875 -16.972656 12.875 -17.328125 C 12.46875 -16.859375 12.125 -16.410156 11.84375 -15.984375 C 11.382812 -15.285156 10.960938 -14.554688 10.578125 -13.796875 C 10.191406 -13.035156 9.84375 -12.269531 9.53125 -11.5 C 9.507812 -11.40625 9.476562 -11.304688 9.4375 -11.203125 C 9.40625 -11.097656 9.367188 -11 9.328125 -10.90625 Z M 9.328125 -10.90625 "/></g></g></g><g fill="#2f7ee2" fill-opacity="1"><g transform="translate(152.071854, 180.311995)"><g/></g></g><g fill="#f7e247" fill-opacity="1"><g transform="translate(152.071854, 180.311995)"><g><path d="M 15.921875 -14.625 C 17.484375 -14.644531 18.6875 -14.269531 19.53125 -13.5 C 20.375 -12.726562 20.757812 -11.535156 20.6875 -9.921875 C 20.632812 -8.515625 20.273438 -7.175781 19.609375 -5.90625 C 18.953125 -4.632812 18.050781 -3.601562 16.90625 -2.8125 C 15.632812 -1.914062 14.253906 -1.441406 12.765625 -1.390625 C 11.285156 -1.347656 9.835938 -1.539062 8.421875 -1.96875 C 6.691406 -2.457031 5.3125 -3.222656 4.28125 -4.265625 C 3.25 -5.304688 2.539062 -6.523438 2.15625 -7.921875 C 1.769531 -9.328125 1.648438 -10.800781 1.796875 -12.34375 C 1.953125 -13.882812 2.335938 -15.414062 2.953125 -16.9375 C 3.578125 -18.457031 4.378906 -19.859375 5.359375 -21.140625 C 6.347656 -22.429688 7.476562 -23.515625 8.75 -24.390625 C 10.019531 -25.265625 11.394531 -25.828125 12.875 -26.078125 C 14.363281 -26.335938 15.894531 -26.1875 17.46875 -25.625 C 18.113281 -25.414062 18.578125 -25.070312 18.859375 -24.59375 C 19.140625 -24.113281 19.273438 -23.597656 19.265625 -23.046875 C 19.253906 -22.503906 19.117188 -22.003906 18.859375 -21.546875 C 18.609375 -21.085938 18.242188 -20.753906 17.765625 -20.546875 C 17.285156 -20.335938 16.726562 -20.347656 16.09375 -20.578125 C 14.96875 -20.953125 13.882812 -20.945312 12.84375 -20.5625 C 11.8125 -20.175781 10.867188 -19.523438 10.015625 -18.609375 C 9.160156 -17.703125 8.460938 -16.671875 7.921875 -15.515625 C 7.390625 -14.359375 7.0625 -13.1875 6.9375 -12 C 6.820312 -10.820312 6.988281 -9.78125 7.4375 -8.875 C 7.6875 -8.332031 8.097656 -7.875 8.671875 -7.5 C 9.242188 -7.125 9.882812 -6.859375 10.59375 -6.703125 C 11.3125 -6.554688 12.003906 -6.535156 12.671875 -6.640625 C 13.335938 -6.742188 13.894531 -7.019531 14.34375 -7.46875 C 14.664062 -7.820312 14.929688 -8.242188 15.140625 -8.734375 C 15.171875 -8.796875 15.191406 -8.878906 15.203125 -8.984375 C 15.210938 -9.097656 15.226562 -9.210938 15.25 -9.328125 C 15.226562 -9.328125 15.195312 -9.328125 15.15625 -9.328125 C 15.125 -9.328125 15.097656 -9.328125 15.078125 -9.328125 C 14.984375 -9.328125 14.894531 -9.328125 14.8125 -9.328125 C 14.726562 -9.328125 14.640625 -9.328125 14.546875 -9.328125 C 14.148438 -8.910156 13.632812 -8.644531 13 -8.53125 C 12.375 -8.425781 11.757812 -8.507812 11.15625 -8.78125 C 10.5625 -9.050781 10.140625 -9.546875 9.890625 -10.265625 C 9.535156 -11.273438 9.519531 -12.070312 9.84375 -12.65625 C 10.175781 -13.238281 10.695312 -13.664062 11.40625 -13.9375 C 12.125 -14.207031 12.894531 -14.382812 13.71875 -14.46875 C 14.550781 -14.550781 15.285156 -14.601562 15.921875 -14.625 Z M 15.921875 -14.625 "/></g></g></g><g fill="#f7e247" fill-opacity="1"><g transform="translate(175.844666, 180.311995)"><g/></g></g><g fill="#06a96e" fill-opacity="1"><g transform="translate(175.844666, 180.311995)"><g><path d="M 15.421875 -21.25 C 15.515625 -21.90625 15.757812 -22.382812 16.15625 -22.6875 C 16.5625 -22.988281 17.023438 -23.140625 17.546875 -23.140625 C 18.078125 -23.140625 18.585938 -23 19.078125 -22.71875 C 19.566406 -22.4375 19.953125 -22.050781 20.234375 -21.5625 C 20.515625 -21.070312 20.609375 -20.5 20.515625 -19.84375 C 19.554688 -13.394531 18.363281 -6.988281 16.9375 -0.625 C 16.820312 -0.113281 16.554688 0.300781 16.140625 0.625 C 15.734375 0.957031 15.257812 1.164062 14.71875 1.25 C 14.1875 1.332031 13.679688 1.269531 13.203125 1.0625 C 12.722656 0.863281 12.363281 0.507812 12.125 0 C 11.59375 -1.28125 11.046875 -2.554688 10.484375 -3.828125 C 9.921875 -5.109375 9.359375 -6.378906 8.796875 -7.640625 C 8.453125 -6.117188 8.113281 -4.59375 7.78125 -3.0625 C 7.457031 -1.53125 7.15625 -0.0078125 6.875 1.5 C 6.757812 2.1875 6.488281 2.679688 6.0625 2.984375 C 5.644531 3.285156 5.171875 3.429688 4.640625 3.421875 C 4.117188 3.410156 3.617188 3.269531 3.140625 3 C 2.660156 2.726562 2.285156 2.347656 2.015625 1.859375 C 1.742188 1.367188 1.679688 0.785156 1.828125 0.109375 C 2.847656 -5.453125 4.109375 -10.96875 5.609375 -16.4375 C 5.753906 -16.9375 6.035156 -17.347656 6.453125 -17.671875 C 6.867188 -17.992188 7.335938 -18.203125 7.859375 -18.296875 C 8.390625 -18.390625 8.890625 -18.34375 9.359375 -18.15625 C 9.828125 -17.96875 10.175781 -17.609375 10.40625 -17.078125 L 13.5 -9.953125 C 13.875 -11.828125 14.21875 -13.703125 14.53125 -15.578125 C 14.84375 -17.460938 15.140625 -19.351562 15.421875 -21.25 Z M 15.421875 -21.25 "/></g></g></g><g fill="#06a96e" fill-opacity="1"><g transform="translate(199.486446, 180.311995)"><g/></g></g><g fill="#e43a3d" fill-opacity="1"><g transform="translate(199.486446, 180.311995)"><g><path d="M 14.625 -7.390625 C 15.300781 -7.367188 15.84375 -7.171875 16.25 -6.796875 C 16.65625 -6.421875 16.921875 -5.96875 17.046875 -5.4375 C 17.179688 -4.914062 17.179688 -4.398438 17.046875 -3.890625 C 16.921875 -3.378906 16.65625 -2.953125 16.25 -2.609375 C 15.84375 -2.273438 15.300781 -2.117188 14.625 -2.140625 C 13.03125 -2.210938 11.4375 -2.207031 9.84375 -2.125 C 8.257812 -2.039062 6.671875 -1.867188 5.078125 -1.609375 C 4.585938 -1.535156 4.070312 -1.585938 3.53125 -1.765625 C 3 -1.941406 2.550781 -2.226562 2.1875 -2.625 C 1.820312 -3.019531 1.6875 -3.535156 1.78125 -4.171875 C 2.1875 -7.398438 2.628906 -10.625 3.109375 -13.84375 C 3.585938 -17.070312 4.101562 -20.300781 4.65625 -23.53125 C 4.726562 -23.925781 4.867188 -24.265625 5.078125 -24.546875 C 5.265625 -24.867188 5.535156 -25.140625 5.890625 -25.359375 C 6.242188 -25.585938 6.675781 -25.710938 7.1875 -25.734375 C 9.707031 -25.804688 12.234375 -25.757812 14.765625 -25.59375 C 15.441406 -25.550781 15.984375 -25.335938 16.390625 -24.953125 C 16.796875 -24.566406 17.0625 -24.109375 17.1875 -23.578125 C 17.320312 -23.054688 17.320312 -22.535156 17.1875 -22.015625 C 17.0625 -21.503906 16.796875 -21.082031 16.390625 -20.75 C 15.984375 -20.425781 15.441406 -20.289062 14.765625 -20.34375 C 13.035156 -20.457031 11.269531 -20.515625 9.46875 -20.515625 C 9.351562 -19.835938 9.234375 -19.160156 9.109375 -18.484375 C 8.992188 -17.804688 8.890625 -17.125 8.796875 -16.4375 C 9.753906 -16.414062 10.679688 -16.359375 11.578125 -16.265625 C 12.273438 -16.191406 12.882812 -15.925781 13.40625 -15.46875 C 13.9375 -15.019531 14.203125 -14.410156 14.203125 -13.640625 C 14.203125 -13.191406 14.078125 -12.753906 13.828125 -12.328125 C 13.585938 -11.910156 13.265625 -11.570312 12.859375 -11.3125 C 12.460938 -11.0625 12.035156 -10.960938 11.578125 -11.015625 C 10.378906 -11.128906 9.1875 -11.1875 8 -11.1875 C 7.90625 -10.53125 7.8125 -9.863281 7.71875 -9.1875 C 7.625 -8.507812 7.53125 -7.84375 7.4375 -7.1875 C 8.625 -7.300781 9.8125 -7.375 11 -7.40625 C 12.195312 -7.445312 13.40625 -7.441406 14.625 -7.390625 Z M 14.625 -7.390625 "/></g></g></g><g fill="#e43a3d" fill-opacity="1"><g transform="translate(219.871164, 180.311995)"><g/></g></g><g fill="#2f7ee2" fill-opacity="1"><g transform="translate(219.871164, 180.311995)"><g><path d="M 15.984375 -24.09375 C 16.640625 -24 17.164062 -23.75 17.5625 -23.34375 C 17.957031 -22.945312 18.222656 -22.476562 18.359375 -21.9375 C 18.503906 -21.40625 18.503906 -20.878906 18.359375 -20.359375 C 18.222656 -19.847656 17.957031 -19.445312 17.5625 -19.15625 C 17.164062 -18.863281 16.640625 -18.753906 15.984375 -18.828125 C 14.910156 -18.960938 13.789062 -19.066406 12.625 -19.140625 C 12.457031 -16.597656 12.296875 -14.050781 12.140625 -11.5 C 11.992188 -8.945312 11.835938 -6.390625 11.671875 -3.828125 C 11.648438 -3.171875 11.445312 -2.632812 11.0625 -2.21875 C 10.675781 -1.8125 10.21875 -1.535156 9.6875 -1.390625 C 9.164062 -1.253906 8.644531 -1.253906 8.125 -1.390625 C 7.613281 -1.535156 7.191406 -1.804688 6.859375 -2.203125 C 6.535156 -2.609375 6.390625 -3.148438 6.421875 -3.828125 C 6.578125 -6.390625 6.734375 -8.953125 6.890625 -11.515625 C 7.046875 -14.078125 7.203125 -16.644531 7.359375 -19.21875 C 6.304688 -19.164062 5.28125 -19.09375 4.28125 -19 C 3.601562 -18.9375 3.054688 -19.0625 2.640625 -19.375 C 2.234375 -19.6875 1.960938 -20.097656 1.828125 -20.609375 C 1.703125 -21.128906 1.707031 -21.648438 1.84375 -22.171875 C 1.988281 -22.703125 2.257812 -23.164062 2.65625 -23.5625 C 3.0625 -23.957031 3.601562 -24.191406 4.28125 -24.265625 C 8.1875 -24.660156 12.085938 -24.601562 15.984375 -24.09375 Z M 15.984375 -24.09375 "/></g></g></g><g fill="#2f7ee2" fill-opacity="1"><g transform="translate(241.435163, 180.311995)"><g/></g></g><g fill="#f7e247" fill-opacity="1"><g transform="translate(241.435163, 180.311995)"><g><path d="M 3.328125 -21.59375 C 3.398438 -22.25 3.632812 -22.773438 4.03125 -23.171875 C 4.425781 -23.566406 4.890625 -23.832031 5.421875 -23.96875 C 5.960938 -24.113281 6.488281 -24.125 7 -24 C 7.519531 -23.875 7.929688 -23.601562 8.234375 -23.1875 C 8.546875 -22.78125 8.664062 -22.25 8.59375 -21.59375 C 7.914062 -15.257812 7.390625 -8.914062 7.015625 -2.5625 C 6.960938 -1.882812 6.75 -1.335938 6.375 -0.921875 C 6.007812 -0.515625 5.5625 -0.25 5.03125 -0.125 C 4.507812 0 3.988281 0 3.46875 -0.125 C 2.957031 -0.25 2.53125 -0.515625 2.1875 -0.921875 C 1.851562 -1.335938 1.707031 -1.882812 1.75 -2.5625 C 2.125 -8.914062 2.648438 -15.257812 3.328125 -21.59375 Z M 3.328125 -21.59375 "/></g></g></g><g fill="#06a96e" fill-opacity="1"><g transform="translate(253.1531, 180.311995)"><g><path d="M 15.609375 -8.421875 C 16.253906 -8.609375 16.816406 -8.582031 17.296875 -8.34375 C 17.773438 -8.113281 18.148438 -7.765625 18.421875 -7.296875 C 18.691406 -6.828125 18.832031 -6.320312 18.84375 -5.78125 C 18.851562 -5.25 18.710938 -4.753906 18.421875 -4.296875 C 18.128906 -3.835938 17.65625 -3.523438 17 -3.359375 C 15.8125 -3.015625 14.59375 -2.757812 13.34375 -2.59375 C 12.09375 -2.425781 10.851562 -2.421875 9.625 -2.578125 C 8.394531 -2.734375 7.21875 -3.125 6.09375 -3.75 C 4.644531 -4.59375 3.539062 -5.738281 2.78125 -7.1875 C 2.019531 -8.632812 1.675781 -10.1875 1.75 -11.84375 C 1.84375 -13.488281 2.25 -15.0625 2.96875 -16.5625 C 3.695312 -18.070312 4.660156 -19.398438 5.859375 -20.546875 C 7.066406 -21.691406 8.4375 -22.570312 9.96875 -23.1875 C 11.5 -23.8125 13.097656 -24.066406 14.765625 -23.953125 C 15.441406 -23.878906 15.984375 -23.648438 16.390625 -23.265625 C 16.796875 -22.878906 17.0625 -22.421875 17.1875 -21.890625 C 17.320312 -21.367188 17.320312 -20.847656 17.1875 -20.328125 C 17.0625 -19.816406 16.796875 -19.394531 16.390625 -19.0625 C 15.984375 -18.738281 15.441406 -18.613281 14.765625 -18.6875 C 13.546875 -18.78125 12.390625 -18.550781 11.296875 -18 C 10.210938 -17.457031 9.296875 -16.691406 8.546875 -15.703125 C 7.804688 -14.722656 7.332031 -13.640625 7.125 -12.453125 C 6.90625 -11.367188 6.953125 -10.503906 7.265625 -9.859375 C 7.585938 -9.222656 8.0625 -8.753906 8.6875 -8.453125 C 9.320312 -8.148438 10.039062 -7.960938 10.84375 -7.890625 C 11.65625 -7.816406 12.472656 -7.835938 13.296875 -7.953125 C 14.128906 -8.078125 14.898438 -8.234375 15.609375 -8.421875 Z M 15.609375 -8.421875 "/></g></g></g><g fill="#06a96e" fill-opacity="1"><g transform="translate(275.110199, 180.311995)"><g/></g></g><g fill="#9b5b41" fill-opacity="1"><g transform="translate(128.299042, 217.449994)"><g/></g></g><g fill="#e43a3d" fill-opacity="1"><g transform="translate(128.299042, 217.449994)"><g><path d="M 25.90625 -19.21875 C 26.332031 -15.664062 26.191406 -12.125 25.484375 -8.59375 C 25.273438 -7.632812 25.03125 -6.648438 24.75 -5.640625 C 24.46875 -4.640625 24.09375 -3.671875 23.625 -2.734375 C 23.164062 -1.796875 22.570312 -0.976562 21.84375 -0.28125 C 21.113281 0.414062 20.285156 0.925781 19.359375 1.25 C 18.441406 1.582031 17.503906 1.695312 16.546875 1.59375 C 15.585938 1.488281 14.6875 1.144531 13.84375 0.5625 C 13.382812 0.226562 12.976562 -0.15625 12.625 -0.59375 C 11.832031 0.0078125 10.960938 0.414062 10.015625 0.625 C 9.066406 0.84375 8.117188 0.785156 7.171875 0.453125 C 6.222656 0.128906 5.335938 -0.519531 4.515625 -1.5 C 3.867188 -2.320312 3.367188 -3.238281 3.015625 -4.25 C 2.660156 -5.269531 2.40625 -6.316406 2.25 -7.390625 C 2.101562 -8.472656 1.984375 -9.515625 1.890625 -10.515625 C 1.722656 -12.273438 1.695312 -14.03125 1.8125 -15.78125 C 1.9375 -17.53125 2.160156 -19.269531 2.484375 -21 C 2.609375 -21.675781 2.875 -22.164062 3.28125 -22.46875 C 3.6875 -22.78125 4.15625 -22.925781 4.6875 -22.90625 C 5.226562 -22.894531 5.734375 -22.753906 6.203125 -22.484375 C 6.671875 -22.222656 7.039062 -21.84375 7.3125 -21.34375 C 7.582031 -20.851562 7.65625 -20.269531 7.53125 -19.59375 C 7.207031 -17.820312 7.023438 -16.023438 6.984375 -14.203125 C 6.953125 -12.378906 7.085938 -10.566406 7.390625 -8.765625 C 7.441406 -8.460938 7.515625 -8 7.609375 -7.375 C 7.703125 -6.757812 7.847656 -6.171875 8.046875 -5.609375 C 8.242188 -5.046875 8.53125 -4.707031 8.90625 -4.59375 C 9.257812 -4.476562 9.546875 -4.519531 9.765625 -4.71875 C 9.984375 -4.914062 10.148438 -5.1875 10.265625 -5.53125 C 10.390625 -5.882812 10.472656 -6.242188 10.515625 -6.609375 C 10.566406 -6.972656 10.578125 -7.257812 10.546875 -7.46875 C 10.503906 -8.164062 10.648438 -8.710938 10.984375 -9.109375 C 11.328125 -9.515625 11.75 -9.78125 12.25 -9.90625 C 12.757812 -10.03125 13.273438 -10.03125 13.796875 -9.90625 C 14.328125 -9.78125 14.785156 -9.507812 15.171875 -9.09375 C 15.554688 -8.6875 15.769531 -8.144531 15.8125 -7.46875 C 15.8125 -7.207031 15.828125 -6.847656 15.859375 -6.390625 C 15.898438 -5.941406 15.972656 -5.488281 16.078125 -5.03125 C 16.179688 -4.570312 16.351562 -4.203125 16.59375 -3.921875 C 16.84375 -3.640625 17.175781 -3.5625 17.59375 -3.6875 C 18.0625 -3.800781 18.441406 -4.109375 18.734375 -4.609375 C 19.023438 -5.109375 19.253906 -5.648438 19.421875 -6.234375 C 19.585938 -6.828125 19.726562 -7.304688 19.84375 -7.671875 C 20.382812 -9.566406 20.710938 -11.476562 20.828125 -13.40625 C 20.941406 -15.332031 20.882812 -17.269531 20.65625 -19.21875 C 20.582031 -19.894531 20.695312 -20.429688 21 -20.828125 C 21.300781 -21.222656 21.703125 -21.484375 22.203125 -21.609375 C 22.710938 -21.742188 23.234375 -21.738281 23.765625 -21.59375 C 24.304688 -21.457031 24.78125 -21.191406 25.1875 -20.796875 C 25.601562 -20.398438 25.84375 -19.875 25.90625 -19.21875 Z M 25.90625 -19.21875 "/></g></g></g><g fill="#e43a3d" fill-opacity="1"><g transform="translate(157.556448, 217.449994)"><g/></g></g><g fill="#2f7ee2" fill-opacity="1"><g transform="translate(157.556448, 217.449994)"><g><path d="M 19.5 -21.421875 C 20.0625 -20.515625 20.445312 -19.492188 20.65625 -18.359375 C 20.863281 -17.222656 20.953125 -16.078125 20.921875 -14.921875 C 20.898438 -13.765625 20.8125 -12.679688 20.65625 -11.671875 C 20.414062 -10.128906 19.929688 -8.664062 19.203125 -7.28125 C 18.484375 -5.90625 17.515625 -4.71875 16.296875 -3.71875 C 15.128906 -2.757812 13.773438 -2.054688 12.234375 -1.609375 C 10.691406 -1.171875 9.1875 -1.179688 7.71875 -1.640625 C 6.726562 -1.953125 5.867188 -2.457031 5.140625 -3.15625 C 4.421875 -3.851562 3.816406 -4.648438 3.328125 -5.546875 C 2.835938 -6.453125 2.476562 -7.375 2.25 -8.3125 C 1.96875 -9.34375 1.800781 -10.53125 1.75 -11.875 C 1.707031 -13.21875 1.800781 -14.585938 2.03125 -15.984375 C 2.269531 -17.390625 2.65625 -18.695312 3.1875 -19.90625 C 3.726562 -21.125 4.453125 -22.132812 5.359375 -22.9375 C 6.296875 -23.894531 7.414062 -24.570312 8.71875 -24.96875 C 10.03125 -25.363281 11.375 -25.492188 12.75 -25.359375 C 14.132812 -25.234375 15.421875 -24.835938 16.609375 -24.171875 C 17.804688 -23.503906 18.769531 -22.585938 19.5 -21.421875 Z M 13.109375 -7.78125 C 13.910156 -8.53125 14.503906 -9.398438 14.890625 -10.390625 C 15.273438 -11.390625 15.515625 -12.429688 15.609375 -13.515625 C 15.703125 -14.597656 15.675781 -15.65625 15.53125 -16.6875 C 15.394531 -17.71875 14.992188 -18.5625 14.328125 -19.21875 C 13.660156 -19.875 12.773438 -20.1875 11.671875 -20.15625 C 11.066406 -20.15625 10.476562 -20.003906 9.90625 -19.703125 C 9.332031 -19.398438 8.859375 -19.003906 8.484375 -18.515625 C 8.066406 -17.929688 7.765625 -17.226562 7.578125 -16.40625 C 7.390625 -15.59375 7.25 -14.832031 7.15625 -14.125 C 6.945312 -12.5625 7.023438 -11.019531 7.390625 -9.5 C 7.515625 -9.050781 7.675781 -8.601562 7.875 -8.15625 C 8.070312 -7.71875 8.359375 -7.359375 8.734375 -7.078125 C 9.335938 -6.640625 10.03125 -6.484375 10.8125 -6.609375 C 11.59375 -6.734375 12.28125 -7.039062 12.875 -7.53125 C 12.9375 -7.601562 13.015625 -7.6875 13.109375 -7.78125 Z M 13.109375 -7.78125 "/></g></g></g><g fill="#2f7ee2" fill-opacity="1"><g transform="translate(181.591322, 217.449994)"><g/></g></g><g fill="#f7e247" fill-opacity="1"><g transform="translate(181.591322, 217.449994)"><g><path d="M 19.953125 -3.296875 C 20.347656 -2.734375 20.507812 -2.203125 20.4375 -1.703125 C 20.375 -1.203125 20.15625 -0.765625 19.78125 -0.390625 C 19.40625 -0.015625 18.953125 0.242188 18.421875 0.390625 C 17.898438 0.546875 17.363281 0.546875 16.8125 0.390625 C 16.257812 0.242188 15.785156 -0.09375 15.390625 -0.625 C 14.335938 -2.082031 13.160156 -3.414062 11.859375 -4.625 C 10.566406 -5.84375 9.171875 -6.941406 7.671875 -7.921875 C 7.554688 -6.546875 7.445312 -5.160156 7.34375 -3.765625 C 7.238281 -2.378906 7.128906 -0.992188 7.015625 0.390625 C 6.960938 1.066406 6.742188 1.601562 6.359375 2 C 5.972656 2.394531 5.507812 2.660156 4.96875 2.796875 C 4.4375 2.941406 3.921875 2.945312 3.421875 2.8125 C 2.921875 2.6875 2.503906 2.421875 2.171875 2.015625 C 1.847656 1.609375 1.707031 1.066406 1.75 0.390625 C 1.957031 -2.160156 2.117188 -4.753906 2.234375 -7.390625 C 2.359375 -10.035156 2.675781 -12.617188 3.1875 -15.140625 C 3.445312 -16.453125 3.925781 -17.710938 4.625 -18.921875 C 5.332031 -20.140625 6.226562 -21.144531 7.3125 -21.9375 C 8.394531 -22.738281 9.660156 -23.175781 11.109375 -23.25 C 12.117188 -23.289062 13.070312 -23.097656 13.96875 -22.671875 C 14.875 -22.253906 15.640625 -21.671875 16.265625 -20.921875 C 16.898438 -20.179688 17.328125 -19.34375 17.546875 -18.40625 C 17.765625 -17.46875 17.710938 -16.5 17.390625 -15.5 C 17.066406 -14.488281 16.535156 -13.539062 15.796875 -12.65625 C 15.054688 -11.769531 14.207031 -11 13.25 -10.34375 C 15.75 -8.3125 17.984375 -5.960938 19.953125 -3.296875 Z M 10.546875 -14.96875 C 10.691406 -15.113281 10.925781 -15.332031 11.25 -15.625 C 11.582031 -15.914062 11.875 -16.222656 12.125 -16.546875 C 12.382812 -16.878906 12.492188 -17.140625 12.453125 -17.328125 C 12.359375 -17.816406 12.175781 -18.082031 11.90625 -18.125 C 11.632812 -18.175781 11.328125 -18.097656 10.984375 -17.890625 C 10.648438 -17.691406 10.316406 -17.421875 9.984375 -17.078125 C 9.660156 -16.742188 9.378906 -16.425781 9.140625 -16.125 C 8.910156 -15.820312 8.765625 -15.601562 8.703125 -15.46875 C 8.515625 -14.925781 8.347656 -14.335938 8.203125 -13.703125 C 8.671875 -13.773438 9.09375 -13.921875 9.46875 -14.140625 C 9.84375 -14.367188 10.203125 -14.644531 10.546875 -14.96875 Z M 10.546875 -14.96875 "/></g></g></g><g fill="#f7e247" fill-opacity="1"><g transform="translate(205.12079, 217.449994)"><g/></g></g><g fill="#06a96e" fill-opacity="1"><g transform="translate(205.12079, 217.449994)"><g><path d="M 15.46875 -11.328125 C 16.144531 -11.367188 16.679688 -11.234375 17.078125 -10.921875 C 17.472656 -10.609375 17.738281 -10.191406 17.875 -9.671875 C 18.019531 -9.160156 18.019531 -8.632812 17.875 -8.09375 C 17.738281 -7.5625 17.460938 -7.101562 17.046875 -6.71875 C 16.640625 -6.332031 16.113281 -6.113281 15.46875 -6.0625 C 13.6875 -5.925781 11.9375 -5.695312 10.21875 -5.375 C 8.5 -5.0625 6.785156 -4.660156 5.078125 -4.171875 C 4.585938 -4.035156 4.070312 -4.066406 3.53125 -4.265625 C 3 -4.460938 2.554688 -4.773438 2.203125 -5.203125 C 1.859375 -5.640625 1.707031 -6.148438 1.75 -6.734375 C 2.03125 -9.460938 2.304688 -12.191406 2.578125 -14.921875 C 2.847656 -17.660156 3.109375 -20.398438 3.359375 -23.140625 C 3.429688 -23.796875 3.664062 -24.328125 4.0625 -24.734375 C 4.457031 -25.140625 4.925781 -25.40625 5.46875 -25.53125 C 6.007812 -25.664062 6.53125 -25.664062 7.03125 -25.53125 C 7.53125 -25.40625 7.9375 -25.140625 8.25 -24.734375 C 8.570312 -24.328125 8.695312 -23.796875 8.625 -23.140625 C 8.414062 -20.960938 8.203125 -18.789062 7.984375 -16.625 C 7.773438 -14.46875 7.566406 -12.316406 7.359375 -10.171875 C 10.003906 -10.734375 12.707031 -11.117188 15.46875 -11.328125 Z M 15.46875 -11.328125 "/></g></g></g><g fill="#06a96e" fill-opacity="1"><g transform="translate(226.198101, 217.449994)"><g/></g></g><g fill="#e43a3d" fill-opacity="1"><g transform="translate(226.198101, 217.449994)"><g><path d="M 15.1875 -21.703125 C 16.375 -20.628906 17.296875 -19.347656 17.953125 -17.859375 C 18.609375 -16.378906 18.84375 -14.820312 18.65625 -13.1875 C 18.488281 -11.832031 18.046875 -10.5625 17.328125 -9.375 C 16.617188 -8.195312 15.75 -7.175781 14.71875 -6.3125 C 13.582031 -5.332031 12.234375 -4.539062 10.671875 -3.9375 C 9.117188 -3.34375 7.628906 -2.8125 6.203125 -2.34375 C 5.804688 -2.207031 5.40625 -2.097656 5 -2.015625 C 4.59375 -1.929688 4.1875 -1.914062 3.78125 -1.96875 C 3.21875 -2.03125 2.734375 -2.289062 2.328125 -2.75 C 1.921875 -3.207031 1.726562 -3.71875 1.75 -4.28125 C 1.914062 -10.632812 2.234375 -17.003906 2.703125 -23.390625 C 2.742188 -24.109375 2.976562 -24.613281 3.40625 -24.90625 C 3.84375 -25.195312 4.359375 -25.347656 4.953125 -25.359375 C 5.554688 -25.378906 6.140625 -25.34375 6.703125 -25.25 C 7.023438 -25.195312 7.328125 -25.148438 7.609375 -25.109375 C 8.984375 -24.828125 10.3125 -24.429688 11.59375 -23.921875 C 12.882812 -23.421875 14.082031 -22.679688 15.1875 -21.703125 Z M 13.21875 -12.90625 C 13.539062 -13.84375 13.59375 -14.695312 13.375 -15.46875 C 13.15625 -16.238281 12.753906 -16.898438 12.171875 -17.453125 C 11.585938 -18.015625 10.894531 -18.484375 10.09375 -18.859375 C 9.300781 -19.234375 8.492188 -19.515625 7.671875 -19.703125 C 7.441406 -15.867188 7.257812 -12.0625 7.125 -8.28125 C 7.988281 -8.5625 8.820312 -8.878906 9.625 -9.234375 C 10.425781 -9.597656 11.144531 -10.066406 11.78125 -10.640625 C 12.414062 -11.210938 12.894531 -11.96875 13.21875 -12.90625 Z M 13.21875 -12.90625 "/></g></g></g><g fill="#e43a3d" fill-opacity="1"><g transform="translate(248.024163, 217.449994)"><g/></g></g></svg>